<svg width="93" height="79" viewBox="0 0 93 79" fill="none" xmlns="http://www.w3.org/2000/svg">
<rect width="93" height="79" fill="white"/>
<path d="M36.403 56.7015C36.403 56.9414 36.1202 57.1333 35.7635 57.1333C35.3577 57.1692 35.0748 56.9774 35.0748 56.7015C35.0748 56.4616 35.3577 56.2698 35.7143 56.2698C36.0833 56.2338 36.403 56.4257 36.403 56.7015ZM32.5782 56.1618C32.4921 56.4017 32.7381 56.6775 33.1071 56.7495C33.4268 56.8694 33.7958 56.7495 33.8696 56.5096C33.9433 56.2698 33.7097 55.9939 33.3407 55.886C33.021 55.802 32.6643 55.922 32.5782 56.1618ZM38.0141 55.9579C37.6575 56.0419 37.4115 56.2698 37.4484 56.5456C37.4853 56.7855 37.805 56.9414 38.174 56.8574C38.5306 56.7735 38.7766 56.5456 38.7397 56.3057C38.7028 56.0779 38.3708 55.922 38.0141 55.9579ZM46.1065 10C29.0486 10 16 22.6288 16 39.2634C16 52.5639 24.5843 63.9454 36.8458 67.9511C38.42 68.227 38.9734 67.2795 38.9734 66.5C38.9734 65.7564 38.9365 61.6547 38.9365 59.1361C38.9365 59.1361 30.3276 60.9351 28.5198 55.5622C28.5198 55.5622 27.1177 52.0721 25.1008 51.1726C25.1008 51.1726 22.2845 49.2897 25.2976 49.3257C25.2976 49.3257 28.3599 49.5656 30.0448 52.4199C32.7381 57.0493 37.2516 55.7181 39.0103 54.9265C39.2931 53.0076 40.0925 51.6764 40.978 50.8848C34.1032 50.1412 27.1669 49.1698 27.1669 37.6323C27.1669 34.3342 28.1016 32.6791 30.0694 30.5683C29.7496 29.7888 28.7042 26.5746 30.3891 22.425C32.9595 21.6454 38.875 25.6631 38.875 25.6631C41.3347 24.9915 43.9788 24.6437 46.5984 24.6437C49.2179 24.6437 51.8621 24.9915 54.3218 25.6631C54.3218 25.6631 60.2373 21.6334 62.8077 22.425C64.4925 26.5866 63.4472 29.7888 63.1274 30.5683C65.0952 32.6911 66.3004 34.3462 66.3004 37.6323C66.3004 49.2058 59.0567 50.1292 52.1819 50.8848C53.3133 51.8323 54.2726 53.6313 54.2726 56.4497C54.2726 60.4914 54.2357 65.4925 54.2357 66.476C54.2357 67.2555 54.8014 68.203 56.3633 67.9271C68.6617 63.9454 77 52.5639 77 39.2634C77 22.6288 63.1643 10 46.1065 10ZM27.954 51.3645C27.7942 51.4845 27.831 51.7603 28.0401 51.9882C28.2369 52.1801 28.5198 52.264 28.6796 52.1081C28.8395 51.9882 28.8026 51.7123 28.5935 51.4845C28.3968 51.2926 28.1139 51.2086 27.954 51.3645ZM26.6258 50.3931C26.5397 50.549 26.6627 50.7409 26.9087 50.8608C27.1054 50.9808 27.3514 50.9448 27.4375 50.7769C27.5236 50.621 27.4006 50.4291 27.1546 50.3091C26.9087 50.2372 26.7119 50.2732 26.6258 50.3931ZM30.6105 54.6627C30.4137 54.8186 30.4875 55.1784 30.7704 55.4062C31.0532 55.6821 31.4099 55.7181 31.5698 55.5262C31.7296 55.3703 31.6558 55.0105 31.4099 54.7826C31.1393 54.5068 30.7704 54.4708 30.6105 54.6627ZM29.2085 52.8997C29.0117 53.0196 29.0117 53.3314 29.2085 53.6073C29.4052 53.8831 29.7373 54.003 29.8972 53.8831C30.094 53.7272 30.094 53.4154 29.8972 53.1395C29.725 52.8637 29.4052 52.7438 29.2085 52.8997Z" fill="black"/>
</svg>
